<svg width="621" height="30" viewBox="0 0 621 30" fill="none" xmlns="http://www.w3.org/2000/svg">
<g clip-path="url(#clip0_55_3985)">
<g style="mix-blend-mode:difference">
<path d="M0 86.7324V1.18164H12.998V75.5068H51.6377V86.7324H0Z" fill="white"/>
<path d="M70.5203 86.7324H56.6951L87.4178 1.18164H102.425L133.265 86.7324H119.44L111.641 64.1631H78.3191L70.5203 86.7324ZM82.1004 53.292H107.86L95.2166 16.7793H94.6258L82.1004 53.292Z" fill="white"/>
<path d="M122.725 1.18164H137.496L159.711 39.9395H160.656L182.989 1.18164H197.759L166.682 53.1738V86.7324H153.684V53.1738L122.725 1.18164Z" fill="white"/>
<path d="M202.462 86.7324V1.18164H256.109V12.4072H215.46V38.2852H253.273V49.3926H215.46V75.5068H256.581V86.7324H202.462Z" fill="white"/>
<path d="M266.011 86.7324V1.18164H296.497C316.349 1.18164 326.156 12.2891 326.156 28.0049C326.156 39.5259 320.957 48.27 310.559 52.1104L329.465 86.7324H314.695L297.324 54.4736H279.009V86.7324H266.011ZM279.009 43.248H295.197C307.841 43.248 313.04 37.6943 313.04 28.0049C313.04 18.3154 307.841 12.2891 295.197 12.2891H279.009V43.248Z" fill="white"/>
<path d="M336.295 86.7324L374.462 12.998V12.2891H330.387V1.18164H387.933V12.7617L349.884 86.7324H336.295Z" fill="white"/>
<path d="M477.572 29.0684C475.445 18.0791 466.346 11.9346 455.475 11.9346C440.705 11.9346 429.715 23.2783 429.715 43.957C429.715 64.7539 440.823 75.9795 455.475 75.9795C466.228 75.9795 475.327 69.9531 477.572 59.082L490.688 59.2002C487.97 76.0977 474.145 87.9141 455.357 87.9141C433.024 87.9141 416.836 71.2529 416.836 43.957C416.836 16.543 433.142 0 455.357 0C473.436 0 487.734 10.6348 490.688 29.0684H477.572Z" fill="white"/>
<path d="M494.446 12.4072V1.18164H560.736V12.4072H534.149V86.7324H521.151V12.4072H494.446Z" fill="white"/>
<path d="M567.92 86.7324V1.18164H620.976V12.4072H580.918V38.2852H617.195V49.3926H580.918V86.7324H567.92Z" fill="white"/>
</g>
</g>
<defs>
<clipPath id="clip0_55_3985">
<rect width="620.976" height="29.3067" fill="white"/>
</clipPath>
</defs>
</svg>
