<svg width="622" height="88" viewBox="0 0 622 88" fill="none" xmlns="http://www.w3.org/2000/svg">
<g style="mix-blend-mode:difference">
<path d="M0.511719 86.7324V1.18164H13.5098V75.5068H52.1494V86.7324H0.511719Z" fill="white"/>
<path d="M71.032 86.7324H57.2068L87.9295 1.18164H102.936L133.777 86.7324H119.952L112.153 64.1631H78.8309L71.032 86.7324ZM82.6121 53.292H108.372L95.7283 16.7793H95.1375L82.6121 53.292Z" fill="white"/>
<path d="M123.237 1.18164H138.007L160.222 39.9395H161.168L183.501 1.18164H198.271L167.194 53.1738V86.7324H154.196V53.1738L123.237 1.18164Z" fill="white"/>
<path d="M202.974 86.7324V1.18164H256.621V12.4072H215.972V38.2852H253.785V49.3926H215.972V75.5068H257.093V86.7324H202.974Z" fill="white"/>
<path d="M266.523 86.7324V1.18164H297.009C316.861 1.18164 326.668 12.2891 326.668 28.0049C326.668 39.5259 321.469 48.27 311.07 52.1104L329.977 86.7324H315.206L297.836 54.4736H279.521V86.7324H266.523ZM279.521 43.248H295.709C308.353 43.248 313.552 37.6943 313.552 28.0049C313.552 18.3154 308.353 12.2891 295.709 12.2891H279.521V43.248Z" fill="white"/>
<path d="M336.807 86.7324L374.974 12.998V12.2891H330.898V1.18164H388.444V12.7617L350.396 86.7324H336.807Z" fill="white"/>
<path d="M478.084 29.0684C475.957 18.0791 466.858 11.9346 455.987 11.9346C441.216 11.9346 430.227 23.2783 430.227 43.957C430.227 64.7539 441.335 75.9795 455.987 75.9795C466.74 75.9795 475.838 69.9531 478.084 59.082L491.2 59.2002C488.482 76.0977 474.657 87.9141 455.869 87.9141C433.536 87.9141 417.347 71.2529 417.347 43.957C417.347 16.543 433.654 0 455.869 0C473.948 0 488.246 10.6348 491.2 29.0684H478.084Z" fill="white"/>
<path d="M494.957 12.4072V1.18164H561.247V12.4072H534.661V86.7324H521.662V12.4072H494.957Z" fill="white"/>
<path d="M568.432 86.7324V1.18164H621.488V12.4072H581.43V38.2852H617.706V49.3926H581.43V86.7324H568.432Z" fill="white"/>
</g>
</svg>
